<?xml version="1.0" encoding="utf-8"?>
<!-- Generator: Adobe Illustrator 27.1.1, SVG Export Plug-In . SVG Version: 6.00 Build 0)  -->
<svg version="1.1" id="Ebene_1" xmlns="http://www.w3.org/2000/svg" xmlns:xlink="http://www.w3.org/1999/xlink" x="0px" y="0px"
	 viewBox="0 0 368.5 141.7" style="enable-background:new 0 0 368.5 141.7;" xml:space="preserve">
<style type="text/css">
	.st0{fill:#6CC24A;}
	.st1{fill:#005587;}
</style>
<path class="st0" d="M158.7,67c4.7,0,8.5-3.9,8.5-8.7c0-4.8-3.8-8.7-8.5-8.7c-4.7,0-8.5,3.9-8.5,8.7C150.2,63.1,154,67,158.7,67"/>
<path class="st1" d="M52.2,59.6l-0.9-0.4c-2.9-1.2-5.7-1.7-8-1.7c-8,0-12.6,7.4-12.6,15.2c0,7.4,3.8,15.2,13.1,15.2
	c2.5,0,5.6-0.8,7.8-2.3l1-0.7l0.7,8.8l-0.5,0.2c-3.3,1.5-7.1,1.8-9.9,1.8C30,95.6,21,85.1,21,72.6c0-13.3,8.8-23,21.9-23
	c3.2,0,7.3,0.7,9.6,1.7l0.5,0.2L52.2,59.6z"/>
<path class="st1" d="M77.8,49.5c13.1,0,21.8,9.7,21.8,23c0,12.6-8.9,23-21.8,23c-13,0-21.9-10.4-21.9-23
	C55.9,59.3,64.6,49.5,77.8,49.5 M77.8,87.8C86.2,87.8,90,80,90,72.6c0-7.9-4.6-15.3-12.2-15.3c-7.7,0-12.3,7.4-12.3,15.2
	C65.5,80,69.3,87.8,77.8,87.8"/>
<path class="st1" d="M114.9,55.5c2.9-3.9,7.9-6.1,13.1-6.1c11.3,0,16.3,7.3,16.3,19.1v26.1h-9.1V71.7c0-9.9-2.1-14-8.1-14.4
	c-8.1,0-11.9,6.6-11.9,16.8v20.5H106v-44h8.9V55.5z"/>
<path class="st1" d="M262.1,55.5c2.4-3.5,6.3-5.9,10.3-5.9c2.3,0,3.5,0.2,5.2,0.6l0.6,0.1V59l-1-0.4c-1.3-0.5-2.7-0.7-4-0.7
	c-6.2,0-10.6,6-10.6,16.6v20.1h-9.1v-44h8.6V55.5z"/>
<path class="st1" d="M292.2,55.5c2.4-3.5,6.3-5.9,10.3-5.9c2.3,0,3.5,0.2,5.2,0.6l0.6,0.1V59l-1-0.4c-1.3-0.5-2.7-0.7-4-0.7
	c-6.2,0-10.6,6-10.6,16.6v20.1h-9.1v-44h8.6V55.5z"/>
<path class="st1" d="M337.5,90.2c-2.2,2.6-6.2,5.3-12.3,5.3c-9.2,0-16-4.2-16-14c0-11.5,12.2-14.7,20-14.7c2.8,0,4.8,0,7.4,0.1
	c-0.2-6.5-2.6-9.6-9.5-9.6c-4.2,0-8.6,1.6-11.6,4.2l-1.1,0.9l-0.5-8.6l0.4-0.2c3.9-2.4,8.6-4.1,14.1-4.1c12.3,0,17.4,6.4,17.4,18.3
	v17.6c0,4.8,0.2,7,0.3,8.3l0.1,0.8h-8.7V90.2z M336.7,74.3c-1.4,0-2.8-0.2-4.2-0.2c-2.1,0-5.6,0.2-8.5,1.2c-3,1-5.2,2.9-5.2,6.2
	c0,3.9,3.7,6.1,7,6.1c7.2,0,10.9-4.5,10.9-10.4V74.3z"/>
<path class="st1" d="M203,58.3h-11v22.5c0,4.6,2.7,6.9,5.7,6.9c2.2,0,3.8-0.7,4.8-1.4l1.1-0.7v8.6l-0.5,0.2
	c-1.7,0.5-4.2,1.2-6.7,1.2c-8.2,0-13.5-4.1-13.5-13.1V58.3h-9.4v-7.8H203V58.3z"/>
<path class="st1" d="M242.6,92.8c-1.5,0.5-3.1,1.2-5.2,1.8c-2.1,0.6-4.7,1-8.2,1C214,95.6,207,86,207,71.9c0-12.9,8-22.2,20.2-22.2
	c14.5,0,19,11,19,24.8v0.7h-29.6c0.4,7.6,6.3,12.7,12.9,12.7c4.9,0,10.6-2.6,12.3-4.1l1.2-1v9.9L242.6,92.8z M236.6,67.7
	c-0.3-5.8-3.8-10.3-9.6-10.3c-6.6,0-9.6,5.2-10.3,10.3H236.6z"/>
</svg>
